<svg width="806" height="315" viewBox="0 0 806 315" fill="none" xmlns="http://www.w3.org/2000/svg">
<path d="M116.352 163H86.4H85.504V62.392C133.461 62.392 166.101 62.392 183.424 62.392C194.517 62.392 202.752 64.7387 208.128 69.432C213.504 74.04 216.192 80.824 216.192 89.784C216.192 90.04 216.192 94.8613 216.192 104.248V121.016C216.192 130.488 216.192 135.352 216.192 135.608C216.192 144.568 213.504 151.395 208.128 156.088C202.752 160.696 194.517 163 183.424 163H116.352ZM114.688 139.192H115.072H179.968C183.04 139.192 185.259 138.68 186.624 137.656C188.075 136.547 188.8 135.139 188.8 133.432V124.984V113.08V100.28V92.344C188.8 90.6373 188.075 89.272 186.624 88.248C185.259 87.1387 183.04 86.584 179.968 86.584C175.275 86.584 153.643 86.584 115.072 86.584H114.688V139.192ZM329.905 145.848H268.081L258.737 163H223.921L279.089 62.392H319.281L373.937 163H339.121L329.905 145.848ZM298.929 87.992L279.473 124.216H318.385L298.929 87.992ZM465.137 108.216C468.294 108.216 471.068 107.32 473.457 105.528C475.846 103.736 477.041 101.133 477.041 97.72C477.041 94.7333 475.889 92.3013 473.585 90.424C471.281 88.4613 468.593 87.48 465.521 87.48H415.729V163H384.369V62.392H467.825C474.908 62.392 480.796 62.904 485.489 63.928C490.182 64.952 494.022 66.6587 497.009 69.048C499.996 71.352 502.172 74.5093 503.537 78.52C504.988 82.5307 505.713 87.608 505.713 93.752C505.713 99.896 505.158 105.059 504.049 109.24C502.94 113.421 501.19 116.792 498.801 119.352C496.412 121.912 493.212 123.789 489.201 124.984C485.276 126.179 480.326 126.776 474.353 126.776V127.288L515.441 163H480.625L420.081 108.216H465.137ZM526.873 62.392H558.233V163H526.873V62.392ZM675.015 145.848H613.191L603.847 163H569.031L624.199 62.392H664.391L719.047 163H684.231L675.015 145.848ZM644.039 87.992L624.583 124.216H663.495L644.039 87.992Z" fill="#0D63B8"/>
<path d="M124.808 249.828C119.12 249.828 114.848 248.232 111.992 245.04C109.16 241.848 107.744 237.312 107.744 231.432V220.524C107.744 214.644 109.16 210.12 111.992 206.952C114.824 203.76 119.072 202.164 124.736 202.164C126.56 202.164 128.216 202.332 129.704 202.668C131.216 203.004 132.56 203.436 133.736 203.964C134.912 204.492 135.908 205.044 136.724 205.62L137.228 211.164C135.812 210.156 134.144 209.28 132.224 208.536C130.328 207.768 128.096 207.384 125.528 207.384C121.664 207.384 118.748 208.536 116.78 210.84C114.812 213.12 113.828 216.372 113.828 220.596V231.216C113.828 235.416 114.824 238.68 116.816 241.008C118.808 243.312 121.784 244.464 125.744 244.464C128.288 244.464 130.532 244.092 132.476 243.348C134.444 242.604 136.148 241.692 137.588 240.612L137.084 246.3C136.268 246.876 135.26 247.44 134.06 247.992C132.86 248.544 131.48 248.988 129.92 249.324C128.384 249.66 126.68 249.828 124.808 249.828ZM161.178 249.9C156.138 249.9 152.31 248.544 149.694 245.832C147.102 243.096 145.806 239.172 145.806 234.06V228.696C145.806 223.608 147.114 219.708 149.73 216.996C152.346 214.284 156.162 212.928 161.178 212.928C166.218 212.928 170.034 214.284 172.626 216.996C175.242 219.708 176.55 223.608 176.55 228.696V234.06C176.55 239.172 175.242 243.096 172.626 245.832C170.034 248.544 166.218 249.9 161.178 249.9ZM161.178 245.148C164.298 245.148 166.662 244.224 168.27 242.376C169.902 240.528 170.718 237.864 170.718 234.384V228.372C170.718 224.916 169.902 222.276 168.27 220.452C166.662 218.604 164.298 217.68 161.178 217.68C158.082 217.68 155.718 218.604 154.086 220.452C152.454 222.276 151.638 224.916 151.638 228.372V234.384C151.638 237.864 152.454 240.528 154.086 242.376C155.718 244.224 158.082 245.148 161.178 245.148ZM211.004 249V227.148C211.004 225.252 210.74 223.62 210.212 222.252C209.708 220.884 208.868 219.828 207.692 219.084C206.54 218.316 204.956 217.932 202.94 217.932C201.092 217.932 199.484 218.28 198.116 218.976C196.772 219.672 195.68 220.62 194.84 221.82C194 222.996 193.412 224.34 193.076 225.852L192.032 221.712H193.292C193.676 220.128 194.348 218.688 195.308 217.392C196.268 216.072 197.552 215.028 199.16 214.26C200.792 213.468 202.784 213.072 205.136 213.072C207.92 213.072 210.164 213.6 211.868 214.656C213.596 215.712 214.856 217.236 215.648 219.228C216.44 221.196 216.836 223.62 216.836 226.5V249H211.004ZM187.496 249V213.864H193.328L193.076 222.288L193.328 222.612V249H187.496ZM252.275 249V227.148C252.275 225.252 252.011 223.62 251.483 222.252C250.979 220.884 250.139 219.828 248.963 219.084C247.811 218.316 246.227 217.932 244.211 217.932C242.363 217.932 240.755 218.28 239.387 218.976C238.043 219.672 236.951 220.62 236.111 221.82C235.271 222.996 234.683 224.34 234.347 225.852L233.303 221.712H234.563C234.947 220.128 235.619 218.688 236.579 217.392C237.539 216.072 238.823 215.028 240.431 214.26C242.063 213.468 244.055 213.072 246.407 213.072C249.191 213.072 251.435 213.6 253.139 214.656C254.867 215.712 256.127 217.236 256.919 219.228C257.711 221.196 258.107 223.62 258.107 226.5V249H252.275ZM228.767 249V213.864H234.599L234.347 222.288L234.599 222.612V249H228.767ZM284.798 249.792C279.446 249.792 275.414 248.484 272.702 245.868C269.99 243.252 268.634 239.508 268.634 234.636V228.372C268.634 223.428 269.894 219.624 272.414 216.96C274.934 214.272 278.618 212.928 283.466 212.928C286.73 212.928 289.454 213.54 291.638 214.764C293.822 215.964 295.466 217.68 296.57 219.912C297.674 222.144 298.226 224.808 298.226 227.904V229.2C298.226 229.968 298.19 230.736 298.118 231.504C298.07 232.272 297.998 233.028 297.902 233.772H292.538C292.586 232.62 292.61 231.528 292.61 230.496C292.634 229.464 292.646 228.516 292.646 227.652C292.646 225.516 292.298 223.716 291.602 222.252C290.93 220.764 289.91 219.636 288.542 218.868C287.198 218.076 285.506 217.68 283.466 217.68C280.442 217.68 278.174 218.556 276.662 220.308C275.15 222.06 274.394 224.568 274.394 227.832V231.18L274.43 231.9V235.248C274.43 236.712 274.646 238.032 275.078 239.208C275.51 240.384 276.182 241.404 277.094 242.268C278.03 243.108 279.206 243.756 280.622 244.212C282.062 244.644 283.766 244.86 285.734 244.86C288.014 244.86 290.138 244.56 292.106 243.96C294.074 243.36 295.922 242.544 297.65 241.512L297.11 246.552C295.55 247.536 293.738 248.328 291.674 248.928C289.61 249.504 287.318 249.792 284.798 249.792ZM271.694 233.772V229.38H296.678V233.772H271.694ZM322.313 249.792C317.273 249.792 313.517 248.436 311.045 245.724C308.597 242.988 307.373 239.124 307.373 234.132V228.66C307.373 223.644 308.609 219.792 311.081 217.104C313.553 214.392 317.297 213.036 322.313 213.036C323.801 213.036 325.157 213.18 326.381 213.468C327.605 213.732 328.697 214.092 329.657 214.548C330.641 214.98 331.469 215.436 332.141 215.916L332.645 220.992C331.517 220.128 330.173 219.396 328.613 218.796C327.077 218.196 325.265 217.896 323.177 217.896C319.817 217.896 317.309 218.832 315.653 220.704C314.021 222.552 313.205 225.252 313.205 228.804V233.988C313.205 237.468 314.021 240.144 315.653 242.016C317.309 243.888 319.817 244.824 323.177 244.824C325.337 244.824 327.197 244.524 328.757 243.924C330.341 243.324 331.745 242.592 332.969 241.728L332.429 246.876C331.373 247.596 329.993 248.268 328.289 248.892C326.585 249.492 324.593 249.792 322.313 249.792ZM355.937 249.72C353.225 249.72 351.041 249.312 349.385 248.496C347.729 247.68 346.529 246.444 345.785 244.788C345.041 243.132 344.669 241.068 344.669 238.596V216.42H350.429V237.912C350.429 240.216 350.957 241.92 352.013 243.024C353.069 244.104 354.845 244.644 357.341 244.644C358.757 244.644 360.113 244.488 361.409 244.176C362.729 243.864 363.965 243.42 365.117 242.844L364.577 247.848C363.449 248.424 362.129 248.88 360.617 249.216C359.105 249.552 357.545 249.72 355.937 249.72ZM338.909 219.048V214.368H364.757L364.217 219.048H338.909ZM344.705 214.944L344.669 205.08L350.537 204.324L350.285 214.944H344.705ZM374.622 249V213.864H380.454V249H374.622ZM377.538 208.104C376.338 208.104 375.438 207.792 374.838 207.168C374.262 206.52 373.974 205.644 373.974 204.54V204.36C373.974 203.232 374.262 202.356 374.838 201.732C375.438 201.108 376.338 200.796 377.538 200.796C378.738 200.796 379.638 201.108 380.238 201.732C380.838 202.356 381.138 203.232 381.138 204.36V204.54C381.138 205.668 380.838 206.544 380.238 207.168C379.638 207.792 378.738 208.104 377.538 208.104ZM416.511 249V227.148C416.511 225.252 416.247 223.62 415.719 222.252C415.215 220.884 414.375 219.828 413.199 219.084C412.047 218.316 410.463 217.932 408.447 217.932C406.599 217.932 404.991 218.28 403.623 218.976C402.279 219.672 401.187 220.62 400.347 221.82C399.507 222.996 398.919 224.34 398.583 225.852L397.539 221.712H398.799C399.183 220.128 399.855 218.688 400.815 217.392C401.775 216.072 403.059 215.028 404.667 214.26C406.299 213.468 408.291 213.072 410.643 213.072C413.427 213.072 415.671 213.6 417.375 214.656C419.103 215.712 420.363 217.236 421.155 219.228C421.947 221.196 422.343 223.62 422.343 226.5V249H416.511ZM393.003 249V213.864H398.835L398.583 222.288L398.835 222.612V249H393.003ZM447.954 238.488C443.178 238.488 439.506 237.444 436.938 235.356C434.394 233.268 433.122 230.28 433.122 226.392V225.492C433.122 223.068 433.614 220.956 434.598 219.156C435.606 217.356 437.202 215.952 439.386 214.944C441.57 213.912 444.426 213.348 447.954 213.252L465.882 212.676V217.284L455.298 216.924L455.262 217.176C456.918 217.512 458.274 218.088 459.33 218.904C460.386 219.72 461.166 220.74 461.67 221.964C462.198 223.188 462.462 224.616 462.462 226.248V227.04C462.462 230.76 461.238 233.604 458.79 235.572C456.342 237.516 452.73 238.488 447.954 238.488ZM447.702 257.856H448.53C450.69 257.856 452.538 257.688 454.074 257.352C455.634 257.04 456.834 256.536 457.674 255.84C458.514 255.144 458.934 254.22 458.934 253.068V252.924C458.934 251.58 458.442 250.548 457.458 249.828C456.498 249.132 454.842 248.676 452.49 248.46L442.554 247.56L444.21 247.488C442.866 247.68 441.678 247.992 440.646 248.424C439.638 248.856 438.846 249.42 438.27 250.116C437.694 250.836 437.406 251.724 437.406 252.78V252.852C437.406 254.076 437.826 255.06 438.666 255.804C439.506 256.548 440.694 257.076 442.23 257.388C443.766 257.7 445.59 257.856 447.702 257.856ZM447.378 262.5C444.21 262.5 441.474 262.224 439.17 261.672C436.89 261.144 435.114 260.268 433.842 259.044C432.594 257.844 431.97 256.224 431.97 254.184V254.04C431.97 252.6 432.306 251.4 432.978 250.44C433.674 249.48 434.598 248.724 435.75 248.172C436.926 247.62 438.234 247.248 439.674 247.056L439.638 246.84C437.67 246.504 436.218 245.928 435.282 245.112C434.346 244.272 433.878 243.192 433.878 241.872V241.836C433.878 240.924 434.082 240.144 434.49 239.496C434.922 238.848 435.558 238.332 436.398 237.948C437.262 237.564 438.354 237.324 439.674 237.228V236.508L446.37 238.2L443.634 238.128C442.002 238.152 440.874 238.356 440.25 238.74C439.626 239.1 439.314 239.652 439.314 240.396V240.432C439.314 241.224 439.758 241.824 440.646 242.232C441.534 242.64 443.046 242.964 445.182 243.204L453.714 244.068C457.434 244.452 460.146 245.352 461.85 246.768C463.554 248.16 464.406 250.224 464.406 252.96V253.14C464.406 255.324 463.758 257.112 462.462 258.504C461.166 259.896 459.33 260.904 456.954 261.528C454.578 262.176 451.734 262.5 448.422 262.5H447.378ZM447.882 234.168C449.898 234.168 451.566 233.88 452.886 233.304C454.23 232.704 455.238 231.816 455.91 230.64C456.606 229.44 456.954 227.976 456.954 226.248V225.384C456.954 223.704 456.618 222.276 455.946 221.1C455.298 219.924 454.314 219.036 452.994 218.436C451.674 217.812 450.018 217.5 448.026 217.5H447.81C445.65 217.5 443.886 217.836 442.518 218.508C441.174 219.156 440.19 220.08 439.566 221.28C438.966 222.456 438.666 223.836 438.666 225.42V226.248C438.666 227.976 439.002 229.428 439.674 230.604C440.37 231.78 441.402 232.668 442.77 233.268C444.138 233.868 445.842 234.168 447.882 234.168ZM496.707 233.7V228.732H509.775C512.919 228.732 515.199 227.952 516.615 226.392C518.031 224.808 518.739 222.636 518.739 219.876V216.744C518.739 213.936 518.031 211.764 516.615 210.228C515.223 208.692 512.967 207.924 509.847 207.924H496.671V202.992H509.955C515.091 202.992 518.823 204.204 521.151 206.628C523.503 209.028 524.679 212.34 524.679 216.564V220.02C524.679 224.292 523.491 227.64 521.115 230.064C518.763 232.488 515.031 233.7 509.919 233.7H496.707ZM492.819 249V202.992H498.687V230.208L498.723 232.872V249H492.819ZM549.642 249.792C544.29 249.792 540.258 248.484 537.546 245.868C534.834 243.252 533.478 239.508 533.478 234.636V228.372C533.478 223.428 534.738 219.624 537.258 216.96C539.778 214.272 543.462 212.928 548.31 212.928C551.574 212.928 554.298 213.54 556.482 214.764C558.666 215.964 560.31 217.68 561.414 219.912C562.518 222.144 563.07 224.808 563.07 227.904V229.2C563.07 229.968 563.034 230.736 562.962 231.504C562.914 232.272 562.842 233.028 562.746 233.772H557.382C557.43 232.62 557.454 231.528 557.454 230.496C557.478 229.464 557.49 228.516 557.49 227.652C557.49 225.516 557.142 223.716 556.446 222.252C555.774 220.764 554.754 219.636 553.386 218.868C552.042 218.076 550.35 217.68 548.31 217.68C545.286 217.68 543.018 218.556 541.506 220.308C539.994 222.06 539.238 224.568 539.238 227.832V231.18L539.274 231.9V235.248C539.274 236.712 539.49 238.032 539.922 239.208C540.354 240.384 541.026 241.404 541.938 242.268C542.874 243.108 544.05 243.756 545.466 244.212C546.906 244.644 548.61 244.86 550.578 244.86C552.858 244.86 554.982 244.56 556.95 243.96C558.918 243.36 560.766 242.544 562.494 241.512L561.954 246.552C560.394 247.536 558.582 248.328 556.518 248.928C554.454 249.504 552.162 249.792 549.642 249.792ZM536.538 233.772V229.38H561.522V233.772H536.538ZM587.59 249.9C582.55 249.9 578.722 248.544 576.106 245.832C573.514 243.096 572.218 239.172 572.218 234.06V228.696C572.218 223.608 573.526 219.708 576.142 216.996C578.758 214.284 582.574 212.928 587.59 212.928C592.63 212.928 596.446 214.284 599.038 216.996C601.654 219.708 602.962 223.608 602.962 228.696V234.06C602.962 239.172 601.654 243.096 599.038 245.832C596.446 248.544 592.63 249.9 587.59 249.9ZM587.59 245.148C590.71 245.148 593.074 244.224 594.682 242.376C596.314 240.528 597.13 237.864 597.13 234.384V228.372C597.13 224.916 596.314 222.276 594.682 220.452C593.074 218.604 590.71 217.68 587.59 217.68C584.494 217.68 582.13 218.604 580.498 220.452C578.866 222.276 578.05 224.916 578.05 228.372V234.384C578.05 237.864 578.866 240.528 580.498 242.376C582.13 244.224 584.494 245.148 587.59 245.148ZM631.224 249.756C629.064 249.756 627.192 249.396 625.608 248.676C624.024 247.956 622.74 246.924 621.756 245.58C620.772 244.236 620.112 242.676 619.776 240.9H617.868L619.56 235.428C619.656 237.54 620.124 239.304 620.964 240.72C621.828 242.112 622.992 243.156 624.456 243.852C625.92 244.548 627.576 244.896 629.424 244.896C632.376 244.896 634.632 244.032 636.192 242.304C637.776 240.576 638.568 238.044 638.568 234.708V227.976C638.568 224.664 637.788 222.144 636.228 220.416C634.668 218.688 632.4 217.824 629.424 217.824C627.648 217.824 626.076 218.172 624.708 218.868C623.34 219.564 622.2 220.512 621.288 221.712C620.4 222.912 619.788 224.28 619.452 225.816L618.012 221.748H619.704C620.088 220.14 620.736 218.688 621.648 217.392C622.584 216.072 623.856 215.028 625.464 214.26C627.096 213.468 629.1 213.072 631.476 213.072C635.7 213.072 638.916 214.392 641.124 217.032C643.332 219.648 644.436 223.452 644.436 228.444V234.276C644.436 239.316 643.32 243.156 641.088 245.796C638.88 248.436 635.592 249.756 631.224 249.756ZM613.908 261.384V213.864H619.74L619.488 222.324L619.56 224.124V238.92L619.524 240.108L619.704 249.972V261.384H613.908ZM655.64 249V201.3H661.436V249H655.64ZM688.78 249.792C683.428 249.792 679.396 248.484 676.684 245.868C673.972 243.252 672.616 239.508 672.616 234.636V228.372C672.616 223.428 673.876 219.624 676.396 216.96C678.916 214.272 682.6 212.928 687.448 212.928C690.712 212.928 693.436 213.54 695.62 214.764C697.804 215.964 699.448 217.68 700.552 219.912C701.656 222.144 702.208 224.808 702.208 227.904V229.2C702.208 229.968 702.172 230.736 702.1 231.504C702.052 232.272 701.98 233.028 701.884 233.772H696.52C696.568 232.62 696.592 231.528 696.592 230.496C696.616 229.464 696.628 228.516 696.628 227.652C696.628 225.516 696.28 223.716 695.584 222.252C694.912 220.764 693.892 219.636 692.524 218.868C691.18 218.076 689.488 217.68 687.448 217.68C684.424 217.68 682.156 218.556 680.644 220.308C679.132 222.06 678.376 224.568 678.376 227.832V231.18L678.412 231.9V235.248C678.412 236.712 678.628 238.032 679.06 239.208C679.492 240.384 680.164 241.404 681.076 242.268C682.012 243.108 683.188 243.756 684.604 244.212C686.044 244.644 687.748 244.86 689.716 244.86C691.996 244.86 694.12 244.56 696.088 243.96C698.056 243.36 699.904 242.544 701.632 241.512L701.092 246.552C699.532 247.536 697.72 248.328 695.656 248.928C693.592 249.504 691.3 249.792 688.78 249.792ZM675.676 233.772V229.38H700.66V233.772H675.676Z" fill="#0D63B8"/>
</svg>
